# xmcd
#
# Track frame offsets:
#	150
#	26260
#	42750
#	56015
#	82652
#	98022
#	115607
#	132205
#	154032
#	179447
#	196880
#	225020
#	239815
#	257617
#	278367
#	297595
#
# Disc length: 4157 seconds
#
# Revision: 0
# Processed by: cddbd v1.5.1PL0 Copyright (c) Steve Scherf et al.
# Submitted via: EasyCDDAExtractor 7.1.3.1
#
DISCID=c3103b10
DTITLE=Nora Jean Bruso - Sing The Blues
DYEAR=2003
DGENRE=Blues
TTITLE0=When You Leave Don't Take Nothing
TTITLE1=I'm Leaving You
TTITLE2=Howlin' For My Baby
TTITLE3=If That's What You Wanna' Do
TTITLE4=Doin' The Shout
TTITLE5=Members Only
TTITLE6=Untrue Lover
TTITLE7=I'd Rather Go Blind
TTITLE8=Can't Shake These Blues
TTITLE9=Who's Been Talking
TTITLE10=It Makes Me So Mad
TTITLE11=Spoonful
TTITLE12=All Your Love
TTITLE13=Big Boss Man
TTITLE14=Killing Floor
TTITLE15=He Belongs to Me
EXTD=
EXTT0=
EXTT1=
EXTT2=
EXTT3=
EXTT4=
EXTT5=
EXTT6=
EXTT7=
EXTT8=
EXTT9=
EXTT10=
EXTT11=
EXTT12=
EXTT13=
EXTT14=
EXTT15=
PLAYORDER=
